<svg width="362" height="34" viewBox="0 0 362 34" fill="none" xmlns="http://www.w3.org/2000/svg">
<path d="M10.2246 8.03516L9.41602 11.6211C10.2246 10.6367 10.9395 9.91602 11.5605 9.45898C12.1816 8.99023 12.832 8.63867 13.5117 8.4043C14.1914 8.1582 14.8652 8.03516 15.5332 8.03516C16.2715 8.03516 16.957 8.17578 17.5898 8.45703C18.2227 8.72656 18.7324 9.08398 19.1191 9.5293C19.5059 9.96289 19.7988 10.5488 19.998 11.2871C20.5137 10.5957 21.1113 10.0039 21.791 9.51172C22.4824 9.00781 23.1797 8.63867 23.8828 8.4043C24.5859 8.1582 25.3125 8.03516 26.0625 8.03516C27.4219 8.03516 28.5234 8.43359 29.3672 9.23047C30.2227 10.0273 30.6504 11.0176 30.6504 12.2012C30.6504 12.5879 30.6328 12.957 30.5977 13.3086C30.5742 13.4844 30.4922 13.877 30.3516 14.4863L29.0332 20.375C28.8926 20.9727 28.8223 21.3945 28.8223 21.6406C28.8223 21.9219 28.8926 22.1387 29.0332 22.291C29.1855 22.4316 29.3965 22.502 29.666 22.502C29.8887 22.502 30.1406 22.4258 30.4219 22.2734C30.9844 21.9922 31.4883 21.6582 31.9336 21.2715L33.9023 23.5391C31.8516 25.4609 29.748 26.4219 27.5918 26.4219C26.3027 26.4219 25.248 26.0527 24.4277 25.3145C23.6191 24.5645 23.2148 23.6797 23.2148 22.6602C23.2148 22.0859 23.2969 21.4297 23.4609 20.6914L24.7793 14.7676C24.9316 14.0996 25.0078 13.6543 25.0078 13.4316C25.0078 13.0918 24.8965 12.8164 24.6738 12.6055C24.4629 12.3828 24.1992 12.2715 23.8828 12.2715C23.3789 12.2715 22.8691 12.4824 22.3535 12.9043C21.4746 13.6309 20.7012 14.7207 20.0332 16.1738C19.377 17.6152 18.7031 19.8242 18.0117 22.8008L17.2559 26H11.7187L14.1797 15.1191C14.3789 14.2168 14.4785 13.6543 14.4785 13.4316C14.4785 13.0801 14.3672 12.7988 14.1445 12.5879C13.9336 12.3652 13.6523 12.2539 13.3008 12.2539C13.0781 12.2539 12.8555 12.2949 12.6328 12.377C12.3047 12.5059 11.9766 12.7051 11.6484 12.9746C11.3203 13.2441 10.9336 13.6953 10.4883 14.3281C10.043 14.9492 9.58594 15.7402 9.11719 16.7012C8.66016 17.6504 8.33203 18.4941 8.13281 19.2324L7.06055 23.3105L6.46289 26H0.890625L3.82617 12.9219H1.10156L1.89258 9.5293C3.97852 9.43555 6.22266 8.9375 8.625 8.03516H10.2246ZM45.9961 8.03516C48.4219 8.03516 50.4492 8.71484 52.0781 10.0742C53.707 11.4219 54.5215 13.2441 54.5215 15.541C54.5215 17.4512 54.0234 19.2676 53.0273 20.9902C52.0312 22.7129 50.707 24.0488 49.0547 24.998C47.4141 25.9473 45.5625 26.4219 43.5 26.4219C40.8633 26.4219 38.7715 25.707 37.2246 24.2773C35.6777 22.8359 34.9043 20.9668 34.9043 18.6699C34.9043 16.7598 35.3906 14.9844 36.3633 13.3438C37.3359 11.6914 38.666 10.3965 40.3535 9.45898C42.041 8.50977 43.9219 8.03516 45.9961 8.03516ZM45.8203 11.6211C45.0469 11.6211 44.3027 11.9023 43.5879 12.4648C42.8848 13.0273 42.2637 13.9766 41.7246 15.3125C41.1855 16.6367 40.916 17.9961 40.916 19.3906C40.916 20.5156 41.1562 21.3652 41.6367 21.9395C42.1289 22.502 42.7617 22.7832 43.5352 22.7832C44.3438 22.7832 45.0996 22.5137 45.8027 21.9746C46.5176 21.4238 47.1445 20.4922 47.6836 19.1797C48.2227 17.8672 48.4922 16.4844 48.4922 15.0312C48.4922 13.8945 48.2461 13.0449 47.7539 12.4824C47.2734 11.9082 46.6289 11.6211 45.8203 11.6211ZM64.4004 2.46289H67.9863L66.6152 8.45703H71.7656L70.9395 11.8496H65.8066L64.0664 19.5664C63.9023 20.3281 63.8203 20.8613 63.8203 21.166C63.8203 21.5762 63.9316 21.8926 64.1543 22.1152C64.377 22.3379 64.6758 22.4492 65.0508 22.4492C65.4844 22.4492 66.041 22.2441 66.7207 21.834C67.4004 21.4121 68.168 20.7148 69.0234 19.7422L71.3438 21.7637C69.7852 23.5918 68.4316 24.8281 67.2832 25.4727C66.1465 26.1055 64.9277 26.4219 63.627 26.4219C62.0449 26.4219 60.75 25.9648 59.7422 25.0508C58.7344 24.125 58.2305 23.0586 58.2305 21.8516C58.2305 21.2188 58.3477 20.375 58.582 19.3203L60.252 11.8496H57.5273L58.248 8.91406C59.291 8.62109 60.1582 8.2168 60.8496 7.70117C61.5527 7.18555 62.2207 6.4707 62.8535 5.55664C63.498 4.64258 64.0137 3.61133 64.4004 2.46289ZM83.4727 8.03516C85.8984 8.03516 87.9258 8.71484 89.5547 10.0742C91.1836 11.4219 91.998 13.2441 91.998 15.541C91.998 17.4512 91.5 19.2676 90.5039 20.9902C89.5078 22.7129 88.1836 24.0488 86.5312 24.998C84.8906 25.9473 83.0391 26.4219 80.9766 26.4219C78.3398 26.4219 76.248 25.707 74.7012 24.2773C73.1543 22.8359 72.3809 20.9668 72.3809 18.6699C72.3809 16.7598 72.8672 14.9844 73.8398 13.3438C74.8125 11.6914 76.1426 10.3965 77.8301 9.45898C79.5176 8.50977 81.3984 8.03516 83.4727 8.03516ZM83.2969 11.6211C82.5234 11.6211 81.7793 11.9023 81.0645 12.4648C80.3613 13.0273 79.7402 13.9766 79.2012 15.3125C78.6621 16.6367 78.3926 17.9961 78.3926 19.3906C78.3926 20.5156 78.6328 21.3652 79.1133 21.9395C79.6055 22.502 80.2383 22.7832 81.0117 22.7832C81.8203 22.7832 82.5762 22.5137 83.2793 21.9746C83.9941 21.4238 84.6211 20.4922 85.1602 19.1797C85.6992 17.8672 85.9688 16.4844 85.9688 15.0313C85.9688 13.8945 85.7227 13.0449 85.2305 12.4824C84.75 11.9082 84.1055 11.6211 83.2969 11.6211ZM109.611 20.1289L111.58 22.7832C108.416 25.209 105.199 26.4219 101.93 26.4219C99.4922 26.4219 97.5469 25.7305 96.0938 24.3477C94.6406 22.9531 93.9141 21.166 93.9141 18.9863C93.9141 17.1348 94.4355 15.3652 95.4785 13.6777C96.5332 11.9785 97.9805 10.6133 99.8203 9.58203C101.672 8.55078 103.646 8.03516 105.744 8.03516C107.818 8.03516 109.465 8.52734 110.684 9.51172C111.902 10.4844 112.512 11.6211 112.512 12.9219C112.512 13.8359 112.254 14.5625 111.738 15.1016C111.223 15.6289 110.543 15.8926 109.699 15.8926C109.184 15.8926 108.721 15.7754 108.311 15.541C107.9 15.3066 107.566 14.9844 107.309 14.5742C107.18 14.3867 107.045 14.0293 106.904 13.502C106.752 12.9395 106.6 12.5527 106.447 12.3418C106.307 12.1309 106.107 11.9609 105.85 11.832C105.604 11.7031 105.34 11.6387 105.059 11.6387C104.414 11.6387 103.764 11.9082 103.107 12.4473C102.252 13.1387 101.525 14.1289 100.928 15.418C100.33 16.6953 100.031 17.9492 100.031 19.1797C100.031 20.1758 100.342 20.9844 100.963 21.6055C101.584 22.2148 102.398 22.5195 103.406 22.5195C104.215 22.5195 105.17 22.3203 106.271 21.9219C107.373 21.5117 108.486 20.9141 109.611 20.1289ZM124.025 8.03516L123.146 11.9902C123.814 10.9824 124.459 10.2148 125.08 9.6875C125.713 9.14844 126.387 8.73828 127.102 8.45703C127.816 8.17578 128.514 8.03516 129.193 8.03516C130.213 8.03516 131.016 8.31055 131.602 8.86133C132.199 9.40039 132.498 10.0918 132.498 10.9355C132.498 11.8262 132.234 12.5645 131.707 13.1504C131.18 13.7363 130.529 14.0293 129.756 14.0293C129.451 14.0293 129.164 13.9883 128.895 13.9063C128.742 13.8594 128.344 13.6484 127.699 13.2734C127.266 13.0273 126.891 12.9043 126.574 12.9043C126.34 12.9043 126.105 12.957 125.871 13.0625C125.508 13.2383 125.104 13.5605 124.658 14.0293C124.213 14.4863 123.732 15.1836 123.217 16.1211C122.83 16.8125 122.402 17.9023 121.934 19.3906C121.477 20.8672 121.096 22.2676 120.791 23.5918L120.211 26H114.691L117.609 12.957H114.902L115.693 9.56445C117.592 9.5293 119.83 9.01953 122.408 8.03516H124.025ZM148.107 9.98633L149.215 8.45703H153.258L150.568 20.2344C150.393 21.043 150.305 21.5586 150.305 21.7813C150.305 21.9922 150.381 22.168 150.533 22.3086C150.686 22.4375 150.879 22.502 151.113 22.502C151.359 22.502 151.682 22.4023 152.08 22.2031C152.49 22.0039 152.924 21.6934 153.381 21.2715L155.402 23.5918C154.336 24.5996 153.293 25.3262 152.273 25.7715C151.266 26.2051 150.234 26.4219 149.18 26.4219C148.441 26.4219 147.768 26.2871 147.158 26.0176C146.561 25.7598 146.051 25.3965 145.629 24.9277C145.219 24.459 144.932 23.9258 144.768 23.3281C144.252 23.9609 143.631 24.5234 142.904 25.0156C142.189 25.5078 141.492 25.8652 140.812 26.0879C140.145 26.3105 139.4 26.4219 138.58 26.4219C137.314 26.4219 136.201 26.1289 135.24 25.543C134.291 24.957 133.541 24.1367 132.99 23.082C132.451 22.0156 132.182 20.7441 132.182 19.2676C132.182 16.2207 133.266 13.5898 135.434 11.375C137.602 9.14844 140.086 8.03516 142.887 8.03516C143.906 8.03516 144.809 8.18164 145.594 8.47461C146.379 8.75586 147.217 9.25977 148.107 9.98633ZM146.666 12.9043C146.021 12.4121 145.477 12.0781 145.031 11.9023C144.586 11.7266 144.129 11.6387 143.66 11.6387C142.125 11.6387 140.842 12.4648 139.811 14.1172C138.791 15.7695 138.281 17.5566 138.281 19.4785C138.281 20.2871 138.486 20.9492 138.896 21.4648C139.307 21.9688 139.799 22.2207 140.373 22.2207C141.018 22.2207 141.65 21.9922 142.271 21.5352C143.127 20.8906 143.947 19.8301 144.732 18.3535C145.529 16.877 146.174 15.0605 146.666 12.9043ZM167.32 8.03516C168.855 8.03516 170.238 8.25195 171.469 8.68555C172.699 9.11914 173.561 9.62891 174.053 10.2148C174.557 10.8008 174.809 11.3926 174.809 11.9902C174.809 12.6465 174.598 13.1914 174.176 13.625C173.766 14.0469 173.227 14.2578 172.559 14.2578C172.242 14.2578 171.938 14.2168 171.645 14.1348C171.352 14.0527 171.076 13.9238 170.818 13.748C170.631 13.6426 170.303 13.3613 169.834 12.9043C169.354 12.4473 169.02 12.1602 168.832 12.043C168.527 11.8672 168.176 11.7324 167.777 11.6387C167.391 11.5332 166.963 11.4805 166.494 11.4805C165.686 11.4805 165.105 11.6094 164.754 11.8672C164.414 12.1133 164.244 12.4238 164.244 12.7988C164.244 13.1035 164.338 13.3496 164.525 13.5371C164.795 13.8066 165.217 14.0352 165.791 14.2227C168.123 14.9961 169.781 15.6289 170.766 16.1211C171.75 16.6016 172.488 17.1816 172.98 17.8613C173.484 18.541 173.736 19.3496 173.736 20.2871C173.736 21.3535 173.396 22.3613 172.717 23.3105C172.037 24.2598 171.053 25.0156 169.764 25.5781C168.475 26.1406 166.852 26.4219 164.895 26.4219C162.047 26.4219 159.768 25.8887 158.057 24.8223C156.756 24.002 156.105 23.0469 156.105 21.957C156.105 21.3125 156.328 20.7676 156.773 20.3223C157.23 19.8652 157.781 19.6367 158.426 19.6367C158.695 19.6367 158.965 19.6836 159.234 19.7773C159.516 19.8711 159.809 20.0352 160.113 20.2695C160.324 20.4219 160.646 20.7441 161.08 21.2363C161.432 21.6348 161.707 21.9043 161.906 22.0449C162.457 22.4434 162.967 22.7188 163.436 22.8711C163.916 23.0234 164.52 23.0996 165.246 23.0996C166.195 23.0996 166.893 22.9766 167.338 22.7305C167.924 22.3906 168.217 21.998 168.217 21.5527C168.217 21.1191 168 20.7559 167.566 20.4629C167.25 20.252 166.178 19.8418 164.35 19.2324C162.229 18.5176 160.764 17.7148 159.955 16.8242C159.146 15.9453 158.742 14.9258 158.742 13.7656C158.742 12.7578 159.053 11.8203 159.674 10.9531C160.295 10.0859 161.244 9.38281 162.521 8.84375C163.811 8.30469 165.41 8.03516 167.32 8.03516ZM186.357 0.212891H188.01L185.461 11.5156C186.211 10.6133 186.908 9.93359 187.553 9.47656C188.197 9.00781 188.889 8.65039 189.627 8.4043C190.365 8.1582 191.115 8.03516 191.877 8.03516C192.885 8.03516 193.746 8.2168 194.461 8.58008C195.176 8.93164 195.738 9.45313 196.148 10.1445C196.559 10.8242 196.764 11.5391 196.764 12.2891C196.764 12.5469 196.746 12.7988 196.711 13.0449C196.699 13.1621 196.623 13.5195 196.482 14.1172L195.094 20.3926C194.93 21.1191 194.848 21.5703 194.848 21.7461C194.848 21.9453 194.924 22.1211 195.076 22.2734C195.24 22.4258 195.428 22.502 195.639 22.502C195.885 22.502 196.178 22.4258 196.518 22.2734C196.857 22.1094 197.338 21.7695 197.959 21.2539L199.945 23.5566C198.738 24.623 197.654 25.3672 196.693 25.7891C195.732 26.2109 194.771 26.4219 193.811 26.4219C192.486 26.4219 191.396 26.0469 190.541 25.2969C189.686 24.5469 189.258 23.668 189.258 22.6602C189.258 22.0156 189.369 21.1895 189.592 20.1816L190.734 15.1543C190.934 14.2871 191.033 13.7012 191.033 13.3965C191.033 13.0801 190.928 12.8223 190.717 12.623C190.506 12.4121 190.225 12.3066 189.873 12.3066C189.088 12.3066 188.279 12.6875 187.447 13.4492C186.393 14.3984 185.42 15.8867 184.529 17.9141C183.779 19.625 183.182 21.4648 182.736 23.4336L182.156 26H176.637L181.365 5.09961H178.588L179.379 1.68945C181.582 1.58398 183.908 1.0918 186.357 0.212891ZM204.867 12.9395H202.125L202.916 9.59961C205.576 9.30664 207.809 8.78516 209.613 8.03516H211.301L210.562 11.4102C211.266 10.5195 211.916 9.86328 212.514 9.44141C213.111 9.00781 213.791 8.66797 214.553 8.42188C215.326 8.16406 216.117 8.03516 216.926 8.03516C218.121 8.03516 219.176 8.31641 220.09 8.87891C221.004 9.42969 221.725 10.2441 222.252 11.3223C222.791 12.3887 223.061 13.6309 223.061 15.0488C223.061 16.9824 222.551 18.875 221.531 20.7266C220.512 22.5664 219.199 23.9785 217.594 24.9629C215.988 25.9355 214.254 26.4219 212.391 26.4219C211.512 26.4219 210.715 26.3105 210 26.0879C209.297 25.8652 208.535 25.4785 207.715 24.9277L206.889 28.6895C206.771 29.2051 206.713 29.5332 206.713 29.6738C206.713 29.9668 206.859 30.1777 207.152 30.3066C207.363 30.4004 207.873 30.4473 208.682 30.4473H209.508L208.682 33.8398H197.396L198.135 30.4473H198.768C199.553 30.4473 200.068 30.4004 200.314 30.3066C200.561 30.2246 200.76 30.0664 200.912 29.832C201.064 29.6094 201.229 29.123 201.404 28.373L204.867 12.9395ZM208.541 21.4648C209.443 22.3789 210.428 22.8359 211.494 22.8359C212.291 22.8359 213.088 22.543 213.885 21.957C214.693 21.3594 215.396 20.3984 215.994 19.0742C216.592 17.7383 216.891 16.3789 216.891 14.9961C216.891 14.0938 216.697 13.4141 216.311 12.957C215.924 12.4883 215.414 12.2539 214.781 12.2539C214.09 12.2539 213.328 12.5879 212.496 13.2559C211.676 13.9238 210.861 15.0664 210.053 16.6836C209.49 17.8203 209.068 19.0273 208.787 20.3047L208.541 21.4648ZM241.025 9.98633L242.133 8.45703H246.176L243.486 20.2344C243.311 21.043 243.223 21.5586 243.223 21.7813C243.223 21.9922 243.299 22.168 243.451 22.3086C243.604 22.4375 243.797 22.502 244.031 22.502C244.277 22.502 244.6 22.4023 244.998 22.2031C245.408 22.0039 245.842 21.6934 246.299 21.2715L248.32 23.5918C247.254 24.5996 246.211 25.3262 245.191 25.7715C244.184 26.2051 243.152 26.4219 242.098 26.4219C241.359 26.4219 240.686 26.2871 240.076 26.0176C239.479 25.7598 238.969 25.3965 238.547 24.9277C238.137 24.459 237.85 23.9258 237.686 23.3281C237.17 23.9609 236.549 24.5234 235.822 25.0156C235.107 25.5078 234.41 25.8652 233.73 26.0879C233.062 26.3105 232.318 26.4219 231.498 26.4219C230.232 26.4219 229.119 26.1289 228.158 25.543C227.209 24.957 226.459 24.1367 225.908 23.082C225.369 22.0156 225.1 20.7441 225.1 19.2676C225.1 16.2207 226.184 13.5898 228.352 11.375C230.52 9.14844 233.004 8.03516 235.805 8.03516C236.824 8.03516 237.727 8.18164 238.512 8.47461C239.297 8.75586 240.135 9.25977 241.025 9.98633ZM239.584 12.9043C238.939 12.4121 238.395 12.0781 237.949 11.9023C237.504 11.7266 237.047 11.6387 236.578 11.6387C235.043 11.6387 233.76 12.4648 232.729 14.1172C231.709 15.7695 231.199 17.5566 231.199 19.4785C231.199 20.2871 231.404 20.9492 231.814 21.4648C232.225 21.9688 232.717 22.2207 233.291 22.2207C233.936 22.2207 234.568 21.9922 235.189 21.5352C236.045 20.8906 236.865 19.8301 237.65 18.3535C238.447 16.877 239.092 15.0605 239.584 12.9043ZM272.455 0.212891L267.832 20.5156L267.779 20.709C267.686 21.084 267.639 21.4004 267.639 21.6582C267.639 21.9277 267.709 22.1328 267.85 22.2734C267.99 22.4023 268.189 22.4668 268.447 22.4668C268.951 22.4668 269.719 22.0684 270.75 21.2715L272.719 23.5742C271.852 24.4531 270.85 25.1504 269.713 25.666C268.588 26.1699 267.533 26.4219 266.549 26.4219C265.775 26.4219 265.072 26.2813 264.439 26C263.818 25.7305 263.309 25.3555 262.91 24.875C262.512 24.3828 262.219 23.75 262.031 22.9766C261.469 23.7148 260.818 24.3477 260.08 24.875C259.342 25.4023 258.598 25.7891 257.848 26.0352C257.109 26.293 256.342 26.4219 255.545 26.4219C253.658 26.4219 252.152 25.6719 251.027 24.1719C250.055 22.8711 249.568 21.3535 249.568 19.6191C249.568 17.5801 250.072 15.6172 251.08 13.7305C252.1 11.8438 253.383 10.4258 254.93 9.47656C256.488 8.51563 258.217 8.03516 260.115 8.03516C261.1 8.03516 261.955 8.1582 262.682 8.4043C263.42 8.65039 264.117 9.04883 264.773 9.59961L265.828 5.11719H262.98L263.789 1.68945C264.914 1.66602 265.916 1.56641 266.795 1.39063C267.686 1.21484 269.004 0.822266 270.75 0.212891H272.455ZM264.053 12.9219C263.021 12.0547 262.061 11.6211 261.17 11.6211C260.408 11.6211 259.605 11.9375 258.762 12.5703C257.93 13.2031 257.215 14.1816 256.617 15.5059C256.031 16.8184 255.738 18.1602 255.738 19.5313C255.738 20.4219 255.92 21.0957 256.283 21.5527C256.646 21.998 257.109 22.2207 257.672 22.2207C258.316 22.2207 259.02 21.9395 259.781 21.377C260.543 20.8145 261.34 19.7539 262.172 18.1953C263.004 16.6367 263.631 14.8789 264.053 12.9219ZM278.115 19.8301C278.654 19.8301 279.17 19.9648 279.662 20.2344C280.166 20.5039 280.553 20.8789 280.822 21.3594C281.092 21.8281 281.227 22.332 281.227 22.8711C281.227 23.457 281.057 24.043 280.717 24.6289C280.389 25.2148 279.949 25.6602 279.398 25.9648C278.859 26.2695 278.25 26.4219 277.57 26.4219C276.656 26.4219 275.924 26.1523 275.373 25.6133C274.822 25.0742 274.547 24.3594 274.547 23.4688C274.547 22.8242 274.699 22.2266 275.004 21.6758C275.32 21.1133 275.771 20.668 276.357 20.3398C276.943 20 277.529 19.8301 278.115 19.8301ZM301.951 20.1289L303.92 22.7832C300.756 25.209 297.539 26.4219 294.27 26.4219C291.832 26.4219 289.887 25.7305 288.434 24.3477C286.98 22.9531 286.254 21.166 286.254 18.9863C286.254 17.1348 286.775 15.3652 287.818 13.6777C288.873 11.9785 290.32 10.6133 292.16 9.58203C294.012 8.55078 295.986 8.03516 298.084 8.03516C300.158 8.03516 301.805 8.52734 303.023 9.51172C304.242 10.4844 304.852 11.6211 304.852 12.9219C304.852 13.8359 304.594 14.5625 304.078 15.1016C303.562 15.6289 302.883 15.8926 302.039 15.8926C301.523 15.8926 301.061 15.7754 300.65 15.541C300.24 15.3066 299.906 14.9844 299.648 14.5742C299.52 14.3867 299.385 14.0293 299.244 13.502C299.092 12.9395 298.939 12.5527 298.787 12.3418C298.646 12.1309 298.447 11.9609 298.189 11.832C297.943 11.7031 297.68 11.6387 297.398 11.6387C296.754 11.6387 296.104 11.9082 295.447 12.4473C294.592 13.1387 293.865 14.1289 293.268 15.418C292.67 16.6953 292.371 17.9492 292.371 19.1797C292.371 20.1758 292.682 20.9844 293.303 21.6055C293.924 22.2148 294.738 22.5195 295.746 22.5195C296.555 22.5195 297.51 22.3203 298.611 21.9219C299.713 21.5117 300.826 20.9141 301.951 20.1289ZM317.613 8.03516C320.039 8.03516 322.066 8.71484 323.695 10.0742C325.324 11.4219 326.139 13.2441 326.139 15.541C326.139 17.4512 325.641 19.2676 324.645 20.9902C323.648 22.7129 322.324 24.0488 320.672 24.998C319.031 25.9473 317.18 26.4219 315.117 26.4219C312.48 26.4219 310.389 25.707 308.842 24.2773C307.295 22.8359 306.521 20.9668 306.521 18.6699C306.521 16.7598 307.008 14.9844 307.98 13.3438C308.953 11.6914 310.283 10.3965 311.971 9.45898C313.658 8.50977 315.539 8.03516 317.613 8.03516ZM317.438 11.6211C316.664 11.6211 315.92 11.9023 315.205 12.4648C314.502 13.0273 313.881 13.9766 313.342 15.3125C312.803 16.6367 312.533 17.9961 312.533 19.3906C312.533 20.5156 312.773 21.3652 313.254 21.9395C313.746 22.502 314.379 22.7832 315.152 22.7832C315.961 22.7832 316.717 22.5137 317.42 21.9746C318.135 21.4238 318.762 20.4922 319.301 19.1797C319.84 17.8672 320.109 16.4844 320.109 15.0313C320.109 13.8945 319.863 13.0449 319.371 12.4824C318.891 11.9082 318.246 11.6211 317.438 11.6211ZM338.021 8.03516L337.213 11.6211C338.021 10.6367 338.736 9.91602 339.357 9.45898C339.979 8.99023 340.629 8.63867 341.309 8.4043C341.988 8.1582 342.662 8.03516 343.33 8.03516C344.068 8.03516 344.754 8.17578 345.387 8.45703C346.02 8.72656 346.529 9.08398 346.916 9.5293C347.303 9.96289 347.596 10.5488 347.795 11.2871C348.311 10.5957 348.908 10.0039 349.588 9.51172C350.279 9.00781 350.977 8.63867 351.68 8.4043C352.383 8.1582 353.109 8.03516 353.859 8.03516C355.219 8.03516 356.32 8.43359 357.164 9.23047C358.02 10.0273 358.447 11.0176 358.447 12.2012C358.447 12.5879 358.43 12.957 358.395 13.3086C358.371 13.4844 358.289 13.877 358.148 14.4863L356.83 20.375C356.689 20.9727 356.619 21.3945 356.619 21.6406C356.619 21.9219 356.689 22.1387 356.83 22.291C356.982 22.4316 357.193 22.502 357.463 22.502C357.686 22.502 357.938 22.4258 358.219 22.2734C358.781 21.9922 359.285 21.6582 359.73 21.2715L361.699 23.5391C359.648 25.4609 357.545 26.4219 355.389 26.4219C354.1 26.4219 353.045 26.0527 352.225 25.3145C351.416 24.5645 351.012 23.6797 351.012 22.6602C351.012 22.0859 351.094 21.4297 351.258 20.6914L352.576 14.7676C352.729 14.0996 352.805 13.6543 352.805 13.4316C352.805 13.0918 352.693 12.8164 352.471 12.6055C352.26 12.3828 351.996 12.2715 351.68 12.2715C351.176 12.2715 350.666 12.4824 350.15 12.9043C349.271 13.6309 348.498 14.7207 347.83 16.1738C347.174 17.6152 346.5 19.8242 345.809 22.8008L345.053 26H339.516L341.977 15.1191C342.176 14.2168 342.275 13.6543 342.275 13.4316C342.275 13.0801 342.164 12.7988 341.941 12.5879C341.73 12.3652 341.449 12.2539 341.098 12.2539C340.875 12.2539 340.652 12.2949 340.43 12.377C340.102 12.5059 339.773 12.7051 339.445 12.9746C339.117 13.2441 338.73 13.6953 338.285 14.3281C337.84 14.9492 337.383 15.7402 336.914 16.7012C336.457 17.6504 336.129 18.4941 335.93 19.2324L334.857 23.3105L334.26 26H328.688L331.623 12.9219H328.898L329.689 9.5293C331.775 9.43555 334.02 8.9375 336.422 8.03516H338.021Z" fill="#1C1B17"/>
</svg>
