<svg width="57" height="58" viewBox="0 0 57 58" fill="none" xmlns="http://www.w3.org/2000/svg">
<path d="M38.0577 45.3849C37.9662 45.3025 37.8593 45.2389 37.7433 45.1978C37.6272 45.1567 37.5042 45.1389 37.3812 45.1453C37.2582 45.1518 37.1377 45.1824 37.0266 45.2354C36.9154 45.2885 36.8158 45.3629 36.7335 45.4544L35.2543 47.0977C35.0942 47.2834 35.0132 47.5245 35.0287 47.7692C35.0442 48.0139 35.1549 48.2428 35.3372 48.4068C35.5195 48.5709 35.7588 48.6569 36.0038 48.6466C36.2488 48.6363 36.48 48.5304 36.6478 48.3516L38.1272 46.7083C38.2933 46.5235 38.3794 46.2804 38.3663 46.0322C38.3533 45.7841 38.2423 45.5512 38.0577 45.3849Z" fill="#1C1B17"/>
<path d="M42.4956 40.4552C42.4041 40.3728 42.2973 40.3092 42.1812 40.2681C42.0651 40.227 41.9421 40.2092 41.8191 40.2156C41.6962 40.2221 41.5757 40.2527 41.4645 40.3057C41.3534 40.3588 41.2538 40.4332 41.1714 40.5247L38.9523 42.9896C38.87 43.0811 38.8064 43.188 38.7653 43.304C38.7243 43.4201 38.7064 43.5431 38.7129 43.6661C38.7194 43.789 38.75 43.9095 38.803 44.0206C38.856 44.1317 38.9304 44.2313 39.0219 44.3137C39.1134 44.396 39.2202 44.4596 39.3363 44.5007C39.4524 44.5418 39.5754 44.5596 39.6983 44.5531C39.8213 44.5467 39.9417 44.516 40.0529 44.463C40.164 44.41 40.2636 44.3356 40.3459 44.2441L42.5649 41.7792C42.7313 41.5944 42.8174 41.3512 42.8045 41.1029C42.7915 40.8546 42.6804 40.6216 42.4956 40.4552Z" fill="#1C1B17"/>
<path d="M33.1172 45.177C33.025 45.0954 32.9176 45.0327 32.8013 44.9926C32.6849 44.9525 32.5617 44.9357 32.4388 44.9431C32.3159 44.9506 32.1957 44.9822 32.085 45.0361C31.9744 45.09 31.8754 45.1652 31.7938 45.2574L29.5836 47.7535C29.5007 47.8455 29.4369 47.953 29.3958 48.0697C29.3547 48.1865 29.3371 48.3102 29.3441 48.4338C29.351 48.5574 29.3824 48.6784 29.4364 48.7898C29.4904 48.9013 29.5659 49.0009 29.6586 49.0829C29.7512 49.165 29.8593 49.2279 29.9764 49.268C30.0935 49.3081 30.2174 49.3246 30.3409 49.3166C30.4645 49.3086 30.5852 49.2761 30.6961 49.2212C30.8071 49.1663 30.906 49.0899 30.9873 48.9965L33.1974 46.5004C33.2791 46.4083 33.3417 46.3009 33.3819 46.1845C33.422 46.0681 33.4388 45.945 33.4314 45.8221C33.4239 45.6992 33.3923 45.579 33.3384 45.4683C33.2845 45.3576 33.2093 45.2587 33.1172 45.177Z" fill="#1C1B17"/>
<path d="M36.1444 43.1727L39.0914 39.8452C39.1731 39.753 39.2357 39.6457 39.2759 39.5293C39.316 39.4129 39.3328 39.2898 39.3254 39.1669C39.3179 39.044 39.2863 38.9238 39.2324 38.8131C39.1785 38.7024 39.1033 38.6034 39.0112 38.5218C38.919 38.4402 38.8117 38.3775 38.6953 38.3374C38.5789 38.2972 38.4557 38.2804 38.3328 38.2879C38.2099 38.2953 38.0897 38.3269 37.979 38.3808C37.8684 38.4347 37.7694 38.5099 37.6878 38.6021L34.7409 41.9296C34.6579 42.0216 34.594 42.129 34.5528 42.2458C34.5116 42.3626 34.4939 42.4864 34.5009 42.6101C34.5078 42.7337 34.5391 42.8548 34.5931 42.9662C34.6471 43.0777 34.7226 43.1774 34.8153 43.2595C34.908 43.3416 35.0161 43.4045 35.1332 43.4446C35.2504 43.4847 35.3744 43.5012 35.4979 43.4932C35.6215 43.4851 35.7423 43.4526 35.8532 43.3976C35.9642 43.3426 36.0632 43.2662 36.1444 43.1727Z" fill="#1C1B17"/>
<path d="M56.4903 28.0786C56.586 27.9055 56.6246 27.7065 56.6004 27.5102C56.5762 27.3139 56.4906 27.1302 56.3557 26.9855C56.3383 26.9669 56.3199 26.9498 56.3013 26.9328C56.2563 26.7314 56.206 26.53 56.1483 26.3291C55.7171 24.816 54.944 23.4223 53.8886 22.2555C53.8636 22.0601 53.7777 21.8776 53.643 21.7338C53.5084 21.59 53.3319 21.4922 53.1386 21.4544C53.1142 21.4497 53.0899 21.4469 53.0657 21.4441C51.7271 20.2632 50.1064 19.4476 48.3605 19.0761C48.2253 18.9334 48.0486 18.8368 47.8554 18.8C47.6623 18.7632 47.4625 18.788 47.2842 18.871C47.2629 18.881 47.2426 18.8925 47.2224 18.9037C45.4466 18.7351 43.6574 19.0289 42.0289 19.7566C41.8345 19.7187 41.6331 19.7433 41.4535 19.8269C41.274 19.9105 41.1255 20.0489 41.0295 20.2221C41.0172 20.2443 41.0066 20.267 40.9963 20.2897C40.3211 20.6872 39.6936 21.1606 39.1261 21.7007L35.7731 19.5093L36.6286 18.9234C37.6448 18.2273 38.8249 17.808 40.0525 17.7069C41.0195 17.6286 41.9522 17.3122 42.7673 16.786C43.5824 16.2597 44.2546 15.54 44.724 14.6909C44.7983 14.5569 44.8386 14.4067 44.8414 14.2535C44.8441 14.1003 44.8093 13.9487 44.7399 13.8121C44.6705 13.6754 44.5687 13.5579 44.4434 13.4697C44.318 13.3816 44.173 13.3255 44.0209 13.3064L39.7648 12.7687C37.7221 12.5128 35.6534 12.9666 33.9054 14.0541L30.589 16.1219L26.982 13.7635C26.4089 13.3885 25.7113 13.2538 25.0397 13.3885C24.9565 13.2906 24.8539 13.2108 24.7385 13.1543C24.6231 13.0977 24.4972 13.0655 24.3688 13.0598L12.9899 12.5759L12.7958 12.2928L15.7805 10.5671C15.8976 10.4994 15.9986 10.4072 16.0767 10.2968C16.1548 10.1863 16.208 10.0603 16.2328 9.92738L16.8297 6.72746L20.0296 7.3243C20.1867 7.3536 20.3487 7.34226 20.5002 7.29135C20.6517 7.24044 20.7876 7.15165 20.8951 7.03342C21.0026 6.91518 21.0781 6.77142 21.1145 6.61579C21.1508 6.46017 21.1467 6.29784 21.1027 6.14422L20.5859 4.34187C20.5519 4.22352 20.495 4.11301 20.4184 4.01666C20.3417 3.92031 20.2469 3.84 20.1392 3.78031L14.9985 0.931484C14.3154 0.55041 13.5635 0.308621 12.7863 0.220114C12.0091 0.131606 11.2221 0.198138 10.4708 0.415859C9.23374 0.773402 8.14477 1.52006 7.36538 2.54516L5.54499 4.94902C5.41255 5.12402 5.3457 5.33993 5.35608 5.55914C5.36647 5.77836 5.45343 5.98698 5.60182 6.14867L6.22139 6.8232C5.50525 7.06841 4.85676 7.4785 4.32823 8.02039C3.34437 9.02467 2.56946 10.2141 2.04836 11.5199C1.52726 12.8256 1.2703 14.2218 1.29237 15.6275L1.84538 24.0181C2.14956 25.083 2.78159 26.025 3.65167 26.7101C4.52174 27.3953 5.58561 27.7889 6.69213 27.8349L11.6452 28.0459L1.3437 33.2957C1.20006 33.3788 1.08104 33.4985 0.998778 33.6425C0.916517 33.7866 0.873964 33.9499 0.875466 34.1158C0.876967 34.2817 0.922468 34.4443 1.00732 34.5869C1.09218 34.7294 1.21335 34.8469 1.35846 34.9273L3.6776 36.2129C3.78529 36.2726 3.90368 36.3105 4.02601 36.3244C4.14834 36.3383 4.27222 36.328 4.39057 36.2941L7.30479 35.4584L8.51498 36.5885C8.63332 36.699 8.77824 36.7769 8.93566 36.8148C9.09307 36.8526 9.2576 36.8491 9.41323 36.8045L13.7064 35.574L17.6104 36.3021C17.6168 36.3032 17.6233 36.3036 17.6297 36.3046L17.8187 36.8033C16.4353 36.4576 14.995 36.4046 13.5899 36.6479C13.4109 36.5626 13.2094 36.5364 13.0145 36.5728C12.8196 36.6093 12.6412 36.7066 12.5051 36.8509C12.4869 36.8701 12.4699 36.8901 12.4542 36.9104C12.2562 36.9682 12.0589 37.0298 11.8633 37.0998C10.3805 37.6266 9.03869 38.4872 7.94135 39.615C7.74797 39.6525 7.57131 39.75 7.43647 39.8936C7.30163 40.0372 7.21546 40.2196 7.19018 40.415C7.18702 40.4396 7.18573 40.464 7.18444 40.4884C6.0915 41.8998 5.38112 43.5693 5.12194 45.3355C4.98821 45.4795 4.90315 45.662 4.87878 45.857C4.85441 46.0521 4.89196 46.2498 4.98612 46.4224C4.99713 46.4425 5.01049 46.4606 5.02268 46.4795C4.96668 48.2629 5.37451 50.0304 6.20627 51.609C6.18042 51.8056 6.21762 52.0054 6.3125 52.1796C6.40739 52.3538 6.55507 52.4934 6.73432 52.5784C6.75776 52.5893 6.7812 52.5979 6.80405 52.6067C7.80562 54.0778 9.17097 55.2645 10.7672 56.0514C10.861 56.2275 11.0085 56.3689 11.1884 56.4551C11.3682 56.5414 11.5709 56.5679 11.7668 56.5309C11.7944 56.5256 11.8212 56.5191 11.8478 56.5113C13.5222 57.1174 15.3255 57.2771 17.0803 56.9748C17.259 57.0592 17.4598 57.0849 17.654 57.0482C17.8482 57.0116 18.0257 56.9143 18.1613 56.7705C18.1794 56.7513 18.1964 56.7311 18.2122 56.7107C18.4097 56.6532 18.6069 56.5917 18.8032 56.5216C20.2854 55.9945 21.6266 55.1341 22.7235 54.0065C22.9171 53.9691 23.094 53.8716 23.229 53.7278C23.364 53.584 23.4502 53.4014 23.4754 53.2058C23.4785 53.1812 23.4798 53.1567 23.4811 53.1323C24.574 51.7209 25.2844 50.0515 25.5436 48.2853C25.6774 48.1412 25.7624 47.9588 25.7868 47.7637C25.8112 47.5686 25.7736 47.3708 25.6794 47.1983C25.6677 47.1775 25.656 47.1582 25.6429 47.1388C25.6835 45.8462 25.4803 44.5576 25.0439 43.3402C24.8802 42.8846 24.6848 42.4409 24.4594 42.0124C24.4853 41.8157 24.4482 41.6158 24.3533 41.4415C24.2584 41.2673 24.1107 41.1276 23.9314 41.0427C23.9086 41.032 23.8856 41.0231 23.8627 41.0144C23.7573 40.8593 23.6477 40.7069 23.5339 40.5574L26.8 39.6209C26.9399 39.5807 27.0685 39.5085 27.1757 39.41L34.8955 32.3202C35.0617 32.1675 35.1673 31.96 35.1928 31.7358C35.2183 31.5116 35.1621 31.2856 35.0345 31.0995L31.8761 26.4924L32.1889 23.4144L36.3755 26.1513C35.9639 27.4813 35.8292 28.8816 35.9799 30.2656C35.8844 30.4387 35.8461 30.6374 35.8704 30.8335C35.8947 31.0296 35.9803 31.213 36.115 31.3576C36.1328 31.3767 36.1517 31.3939 36.1707 31.4112C36.2158 31.6127 36.265 31.8138 36.3223 32.0139C36.7536 33.527 37.5268 34.9207 38.5821 36.0876C38.6072 36.2831 38.6932 36.4657 38.8279 36.6094C38.9627 36.7532 39.1393 36.8509 39.3327 36.8886C39.3572 36.8934 39.3815 36.8964 39.4058 36.8993C40.7446 38.0801 42.3655 38.8955 44.1117 39.2664C44.2465 39.4095 44.423 39.5064 44.6161 39.5432C44.8092 39.5801 45.0089 39.555 45.1869 39.4716C45.2067 39.4625 45.2254 39.4518 45.2442 39.4414C45.5682 39.4727 45.8936 39.4883 46.2203 39.4883C47.6763 39.4868 49.1157 39.1794 50.4453 38.5862C50.6391 38.6257 50.8406 38.6019 51.0199 38.5182C51.1993 38.4346 51.347 38.2956 51.4414 38.1216C51.4531 38.1001 51.4634 38.0782 51.4735 38.0561C53.0055 37.1503 54.277 35.8633 55.1642 34.3203C55.346 34.2378 55.4968 34.0994 55.5945 33.9253C55.6923 33.7511 55.7318 33.5503 55.7074 33.3521C55.704 33.3243 55.6989 33.2971 55.6933 33.2701C56.4041 31.6378 56.6788 29.8489 56.4903 28.0786ZM34.8974 15.645C36.2794 14.7853 37.9147 14.4266 39.5296 14.6287L42.1022 14.9537C41.4736 15.464 40.7054 15.7721 39.8984 15.8375C38.3456 15.9655 36.8529 16.4959 35.5675 17.3764L34.0751 18.3996L32.3195 17.2521L34.8974 15.645ZM42.7556 26.3136L42.7628 26.3183L45.9408 28.3954C46.0282 28.4531 46.1024 28.5287 46.1585 28.6171C46.2146 28.7056 46.2513 28.805 46.2661 28.9087C46.281 29.0123 46.2736 29.118 46.2446 29.2187C46.2156 29.3193 46.1656 29.4127 46.0978 29.4925C45.9802 29.6307 45.816 29.7209 45.6363 29.7462C45.4566 29.7715 45.2739 29.73 45.1227 29.6296L25.9508 17.097C26.0477 16.8926 26.067 16.66 26.0053 16.4424L25.6551 15.2212C25.7624 15.2361 25.8651 15.2743 25.956 15.3334L42.7556 26.3136ZM48.1228 28.643C48.0701 28.2762 47.9401 27.9247 47.7414 27.6119C47.5428 27.299 47.28 27.0318 46.9704 26.828L45.0934 25.6013C45.1296 25.5896 45.1656 25.5779 45.2023 25.5672C45.9133 25.3632 46.6689 25.374 47.3738 25.5983C48.0787 25.8226 48.7015 26.2504 49.1639 26.8279C49.6263 27.4053 49.9075 28.1066 49.9723 28.8435C50.037 29.5804 49.8824 30.32 49.5278 30.9693C49.1732 31.6185 48.6345 32.1483 47.9795 32.4921C47.3245 32.8359 46.5824 32.9783 45.8467 32.9014C45.1109 32.8245 44.4144 32.5317 43.8447 32.0598C43.275 31.5879 42.8575 30.9581 42.6449 30.2496L44.0943 31.197C44.5149 31.4743 45.0067 31.6242 45.5105 31.6287C46.0143 31.6332 46.5087 31.4921 46.9342 31.2223C47.3597 30.9526 47.6982 30.5657 47.9091 30.1081C48.12 29.6505 48.1942 29.1418 48.1228 28.643ZM18.7226 48.4148C18.4587 48.9722 18.0615 49.4559 17.566 49.8231C17.0705 50.1902 16.4921 50.4296 15.8821 50.5198C15.2721 50.6101 14.6492 50.5485 14.0686 50.3405C13.488 50.1325 12.9677 49.7846 12.5537 49.3275C12.1398 48.8704 11.8449 48.3183 11.6953 47.72C11.5457 47.1218 11.5459 46.4958 11.696 45.8977C11.846 45.2995 12.1413 44.7476 12.5556 44.2908C12.9699 43.834 13.4905 43.4865 14.0712 43.2789C14.2044 43.2321 14.3401 43.1927 14.4777 43.1611L13.3803 44.6105C12.9734 45.1482 12.7878 45.8213 12.8616 46.4915C12.9353 47.1617 13.2628 47.7783 13.7768 48.2146C14.2506 48.6198 14.8536 48.8421 15.477 48.8415C15.5691 48.8415 15.6611 48.8367 15.7527 48.8273C16.1067 48.7923 16.4498 48.6855 16.7611 48.5134C17.0724 48.3412 17.3453 48.1074 17.5631 47.8262L18.9928 45.9944C19.1768 46.8087 19.0817 47.6612 18.7226 48.4148ZM19.3569 40.8609C19.4197 41.0258 19.5278 41.1696 19.6688 41.2756C19.8098 41.3817 19.978 41.4456 20.1538 41.4602L16.0849 46.6721C15.9607 46.8299 15.7792 46.9324 15.5799 46.9573C15.3806 46.9821 15.1795 46.9274 15.0203 46.805C14.861 46.6826 14.7565 46.5024 14.7293 46.3034C14.7021 46.1044 14.7544 45.9026 14.875 45.742L19.0946 40.1688L19.3569 40.8609ZM20.8044 39.3896L17.4687 30.5932L20.0937 29.8404L21.6442 35.2475C21.6922 35.4148 21.7858 35.5655 21.9146 35.6827C22.0434 35.7998 22.2023 35.8787 22.3735 35.9107L23.6977 36.1576C24.1602 36.2461 24.5855 36.4713 24.9189 36.8039C25.2522 37.1365 25.4783 37.5614 25.5679 38.0237L20.8044 39.3896ZM17.2226 21.9537L9.85409 20.5794L9.96764 17.911C10.7103 18.4263 11.5927 18.7022 12.4965 18.7018C12.5872 18.7018 19.3208 18.2962 19.3208 18.2962L22.3743 19.27C22.5103 19.3134 22.6544 19.3252 22.7957 19.3044C22.9369 19.2836 23.0716 19.2309 23.1893 19.1502L24.3979 18.3215L24.7196 18.5319L19.3765 23.0093C18.7688 22.4667 18.0237 22.1016 17.2226 21.9537ZM15.0717 29.3301L12.0239 30.204L11.8564 30.0216L14.8599 28.592L15.0717 29.3301ZM24.0419 34.3144L23.2875 34.1738L21.8967 29.3237L24.9158 28.458L29.8796 34.3814L27.1698 36.8701C26.9023 36.2175 26.4761 35.6419 25.93 35.1956C25.3838 34.7494 24.7348 34.4465 24.042 34.3144H24.0419ZM24.5209 26.6205L21.3803 27.5212L20.5145 24.5021L26.3598 19.6037L26.8885 19.9493L24.5209 26.6205ZM24.017 16.3094L22.5078 17.3444L20.8137 16.8041L21.9067 14.8323L23.6147 14.9049L24.017 16.3094ZM19.8116 14.7432L18.8683 16.4452L12.6565 16.822C12.2282 16.8487 11.8 16.7678 11.4111 16.5865C11.0222 16.4052 10.6848 16.1293 10.4299 15.7841L7.88838 12.3571C7.72527 12.1381 7.64934 11.8663 7.67532 11.5944C7.70131 11.3226 7.82736 11.07 8.02901 10.8859C8.23061 10.6983 8.49589 10.5941 8.77127 10.5945C8.81446 10.5945 8.85762 10.5969 8.90053 10.6018C9.05803 10.6187 9.20993 10.6698 9.34566 10.7515C9.48139 10.8331 9.59767 10.9434 9.68639 11.0746L11.708 14.0231C11.7903 14.1431 11.8994 14.2423 12.0267 14.3129C12.154 14.3835 12.2959 14.4234 12.4414 14.4296L19.8116 14.7432ZM14.6853 7.99602L13.7544 7.20629L13.89 6.47973L14.9596 6.52519L14.6853 7.99602ZM8.85987 3.67684C9.39408 2.97442 10.1404 2.46286 10.9882 2.21797C11.5029 2.06882 12.0421 2.02328 12.5746 2.08396C13.107 2.14465 13.6221 2.31037 14.0901 2.57152L18.8159 5.19101L13.1578 4.5718C12.9325 4.56233 12.7112 4.63445 12.5347 4.77492C12.3582 4.9154 12.2383 5.1148 12.1969 5.33656L11.8125 7.3973C11.7822 7.55979 11.7954 7.7274 11.8507 7.88315C11.9061 8.0389 12.0016 8.17725 12.1276 8.28418L13.6908 9.61027L12.1472 10.5028L7.51209 5.45726L8.85987 3.67684ZM5.6712 9.32891C6.20802 8.77972 6.9371 8.46041 7.70475 8.43828L8.04682 8.81129C7.57212 8.93078 7.1342 9.16546 6.77182 9.49455C6.40944 9.82364 6.13378 10.237 5.96924 10.698C5.8047 11.159 5.75636 11.6535 5.82848 12.1377C5.90061 12.6219 6.09099 13.0808 6.38276 13.4738L8.17666 15.894L7.97956 20.5303L3.23991 21.1855L3.16737 15.6031C3.14911 14.4437 3.361 13.2922 3.79078 12.2152C4.22057 11.1382 4.8597 10.1572 5.6712 9.32891ZM3.64772 23.5017L3.51542 23.0402L8.86069 22.3019L16.879 23.7971C17.3503 23.8833 17.7879 24.0999 18.1424 24.4222C18.4969 24.7445 18.7539 25.1597 18.8844 25.6207L19.5777 28.0382L16.8741 28.8136L16.3573 27.0111C16.303 26.822 16.1907 26.6547 16.0361 26.533C15.8815 26.4113 15.6925 26.3413 15.496 26.3329L6.77182 25.9617C6.05861 25.932 5.37287 25.6784 4.81204 25.2368C4.25121 24.7952 3.84381 24.188 3.64772 23.5017ZM4.24655 34.3848L3.7151 34.0902L5.02667 33.3318L5.70635 33.9662L4.24655 34.3848ZM13.8325 33.6896C13.6894 33.6629 13.5421 33.6698 13.4022 33.71L9.40608 34.8557L6.80463 32.427L10.0859 30.865L11.0351 31.899C11.1528 32.0274 11.304 32.1204 11.4717 32.1676C11.6394 32.2148 11.8169 32.2142 11.9843 32.1661L15.6611 31.1114L16.8519 34.252L13.8325 33.6896ZM18.1729 54.7556C17.9785 54.8251 17.783 54.8845 17.5869 54.9388L16.1948 53.6251C16.1052 53.5406 15.9999 53.4746 15.8848 53.4308C15.7697 53.387 15.6472 53.3663 15.5241 53.3698C15.401 53.3734 15.2799 53.4012 15.1676 53.4516C15.0552 53.502 14.9539 53.574 14.8694 53.6636C14.7849 53.7531 14.7189 53.8584 14.6751 53.9735C14.6313 54.0886 14.6106 54.2111 14.6142 54.3342C14.6178 54.4573 14.6455 54.5784 14.6959 54.6908C14.7463 54.8031 14.8184 54.9044 14.9079 54.9889L15.1792 55.2448C14.2219 55.2258 13.2748 55.0439 12.3784 54.7072L12.025 52.8298C11.979 52.5855 11.8378 52.3694 11.6325 52.2292C11.4271 52.0889 11.1745 52.036 10.9302 52.082C10.6858 52.128 10.4697 52.2692 10.3295 52.4745C10.1893 52.6799 10.1363 52.9325 10.1823 53.1768L10.2499 53.5393C9.48613 52.9648 8.82605 52.264 8.29819 51.4672L9.1185 49.7355C9.17119 49.6242 9.20144 49.5037 9.20753 49.3807C9.21362 49.2577 9.19544 49.1348 9.15401 49.0188C9.11258 48.9029 9.04873 48.7963 8.96609 48.705C8.88345 48.6138 8.78364 48.5397 8.67237 48.487C8.5611 48.4343 8.44054 48.4041 8.31757 48.398C8.19461 48.3919 8.07165 48.4101 7.95571 48.4515C7.83978 48.4929 7.73314 48.5568 7.64188 48.6394C7.55062 48.722 7.47654 48.8218 7.42385 48.9331L7.26377 49.2712C6.98373 48.3555 6.86276 47.3986 6.90612 46.4421L8.58588 45.5237C8.80407 45.4044 8.96594 45.2034 9.03589 44.9648C9.10584 44.7262 9.07815 44.4695 8.95889 44.2514C8.83964 44.0332 8.63859 43.8713 8.39999 43.8014C8.16139 43.7314 7.90477 43.7591 7.68659 43.8784L7.36444 44.0541C7.67754 43.1513 8.14059 42.3077 8.73413 41.5587L10.6309 41.8028C10.8773 41.8341 11.1259 41.7663 11.3224 41.6144C11.5188 41.4624 11.6469 41.2388 11.6786 40.9925C11.7103 40.7462 11.643 40.4974 11.4915 40.3007C11.34 40.104 11.1166 39.9754 10.8703 39.9432L10.5001 39.8956C11.1157 39.4643 11.7864 39.1175 12.4941 38.8644C12.6877 38.7952 12.8833 38.7355 13.08 38.6811L14.4726 39.9949C14.5619 40.0806 14.6673 40.1479 14.7827 40.1927C14.8981 40.2375 15.0213 40.259 15.145 40.2559C15.2688 40.2529 15.3907 40.2253 15.5038 40.1749C15.6169 40.1245 15.7188 40.0521 15.8038 39.9621C15.8888 39.872 15.9551 39.766 15.9988 39.6502C16.0426 39.5344 16.063 39.4111 16.0589 39.2873C16.0548 39.1636 16.0262 39.0419 15.9747 38.9293C15.9233 38.8167 15.8501 38.7153 15.7593 38.6312L15.486 38.3734C16.2775 38.3876 17.063 38.5139 17.8191 38.7484L15.9491 41.2182C14.7002 41.0782 13.4403 41.3591 12.3692 42.0163C11.298 42.6736 10.4769 43.6696 10.036 44.8465C9.59515 46.0233 9.55973 47.3137 9.93539 48.5129C10.311 49.7122 11.0763 50.7517 12.1098 51.4668C13.1432 52.1818 14.3858 52.5314 15.6405 52.4601C16.8952 52.3888 18.0902 51.9007 19.0361 51.0732C19.9819 50.2457 20.6245 49.1262 20.8619 47.8921C21.0993 46.658 20.9179 45.38 20.3466 44.2606L22.1935 41.8944C22.254 41.979 22.3119 42.0655 22.3692 42.1522L21.5489 43.8848C21.4953 43.9962 21.4642 44.1171 21.4574 44.2406C21.4507 44.364 21.4684 44.4876 21.5097 44.6042C21.5509 44.7208 21.6147 44.828 21.6976 44.9198C21.7804 45.0116 21.8806 45.0861 21.9924 45.139C22.1042 45.1919 22.2253 45.2222 22.3488 45.2281C22.4723 45.234 22.5957 45.2154 22.712 45.1734C22.8283 45.1314 22.9352 45.0668 23.0264 44.9833C23.1176 44.8999 23.1914 44.7992 23.2436 44.6871L23.4038 44.3485C23.685 45.2632 23.8079 46.2192 23.7671 47.1752L22.0817 48.0966C21.9736 48.1556 21.8782 48.2353 21.8009 48.3312C21.7237 48.427 21.6661 48.5372 21.6314 48.6553C21.5967 48.7734 21.5856 48.8972 21.5987 49.0196C21.6118 49.142 21.649 49.2606 21.708 49.3687C21.7669 49.4768 21.8466 49.5722 21.9425 49.6494C22.0383 49.7267 22.1485 49.7843 22.2666 49.819C22.3847 49.8537 22.5085 49.8648 22.6309 49.8517C22.7533 49.8385 22.872 49.8014 22.98 49.7424L23.3081 49.563C23.2072 49.855 23.0906 50.1414 22.9589 50.4209C22.682 51.0051 22.3394 51.5558 21.9376 52.0624L20.0355 51.8176C19.9132 51.8016 19.789 51.8099 19.67 51.8419C19.551 51.874 19.4395 51.9292 19.3418 52.0045C19.2442 52.0797 19.1623 52.1734 19.1009 52.2803C19.0395 52.3872 18.9998 52.5052 18.9841 52.6275C18.9684 52.7497 18.9769 52.8739 19.0092 52.9928C19.0415 53.1118 19.0969 53.2232 19.1723 53.3207C19.2478 53.4182 19.3417 53.4999 19.4487 53.5611C19.5557 53.6223 19.6737 53.6617 19.796 53.6772L20.1699 53.7254C19.5527 54.1559 18.8811 54.5023 18.1725 54.7556H18.1729ZM30.1355 27.2696L33.0285 31.4893L31.2617 33.1116L26.3056 27.1973L28.5028 21.0052L30.4212 22.2591L29.9759 26.6445C29.9535 26.8652 30.01 27.0867 30.1355 27.2696ZM50.4324 36.49L48.7566 35.5611C48.5391 35.4405 48.2827 35.4113 48.0437 35.4799C47.8047 35.5484 47.6027 35.7091 47.4821 35.9265C47.3616 36.144 47.3324 36.4005 47.4009 36.6395C47.4694 36.8785 47.6301 37.0805 47.8476 37.201L48.1757 37.3827C47.2449 37.6046 46.283 37.666 45.3315 37.5641L44.5198 35.8231C44.4687 35.71 44.3957 35.6082 44.305 35.5235C44.2143 35.4388 44.1077 35.373 43.9914 35.3298C43.875 35.2867 43.7513 35.267 43.6273 35.2721C43.5033 35.2771 43.3816 35.3067 43.2691 35.3591C43.1567 35.4116 43.0557 35.4858 42.9722 35.5776C42.8886 35.6693 42.8241 35.7767 42.7824 35.8936C42.7407 36.0104 42.7226 36.1344 42.7291 36.2583C42.7357 36.3822 42.7668 36.5036 42.8206 36.6154L42.9787 36.9546C42.6936 36.8352 42.4153 36.7006 42.1448 36.5512C41.5794 36.2375 41.0517 35.8604 40.5719 35.427L40.9378 33.5444C40.9616 33.4235 40.9612 33.299 40.9368 33.1782C40.9124 33.0574 40.8644 32.9426 40.7955 32.8404C40.7267 32.7381 40.6384 32.6505 40.5357 32.5824C40.4329 32.5143 40.3177 32.4672 40.1968 32.4437C40.0758 32.4202 39.9513 32.4207 39.8306 32.4453C39.7098 32.47 39.5951 32.5182 39.493 32.5872C39.3908 32.6562 39.3033 32.7446 39.2354 32.8475C39.1675 32.9504 39.1206 33.0656 39.0973 33.1866L39.0253 33.5566C38.635 32.9132 38.3321 32.2206 38.1246 31.4973C38.068 31.2998 38.0199 31.1014 37.9778 30.9024L39.3792 29.5954C39.471 29.5119 39.5453 29.411 39.5978 29.2986C39.6502 29.1861 39.6799 29.0644 39.685 28.9404C39.69 28.8165 39.6705 28.6927 39.6274 28.5764C39.5842 28.46 39.5185 28.3534 39.4338 28.2626C39.3492 28.1719 39.2474 28.0989 39.1344 28.0478C39.0213 27.9967 38.8992 27.9685 38.7752 27.965C38.6511 27.9614 38.5276 27.9825 38.4118 28.027C38.296 28.0715 38.1902 28.1386 38.1005 28.2243L37.8218 28.4846C37.8569 28.0614 37.9243 27.6414 38.0234 27.2285L40.6163 28.9234C40.5832 29.6815 40.7038 30.4385 40.9706 31.1489C41.2375 31.8593 41.6453 32.5084 42.1694 33.0572C42.6934 33.606 43.3231 34.0432 44.0204 34.3426C44.7177 34.6419 45.4684 34.7972 46.2272 34.7991C46.7545 34.7987 47.2791 34.7245 47.7858 34.5787C48.5595 34.357 49.2765 33.9718 49.8886 33.4492C50.5007 32.9266 50.9934 32.2788 51.3337 31.5494C51.6739 30.8201 51.8537 30.0262 51.8608 29.2214C51.868 28.4166 51.7024 27.6197 51.3751 26.8844C51.0479 26.1491 50.5667 25.4926 49.9641 24.9592C49.3614 24.4258 48.6513 24.028 47.8817 23.7925C47.1121 23.5571 46.3009 23.4895 45.503 23.5944C44.705 23.6993 43.9389 23.9742 43.2563 24.4005L40.7485 22.7612C41.1485 22.4185 41.5798 22.1143 42.0368 21.8524L43.714 22.782C43.9315 22.9026 44.1879 22.9318 44.4269 22.8633C44.6659 22.7947 44.8679 22.634 44.9885 22.4166C45.109 22.1991 45.1382 21.9427 45.0697 21.7037C45.0012 21.4646 44.8405 21.2627 44.623 21.1421L44.2949 20.9606C45.2257 20.7386 46.1875 20.6772 47.1389 20.7791L47.9508 22.5201C48.0574 22.7429 48.2477 22.9147 48.4802 22.998C48.7128 23.0813 48.9688 23.0695 49.1927 22.9651C49.4166 22.8607 49.5902 22.6722 49.6758 22.4404C49.7615 22.2087 49.7522 21.9526 49.65 21.7277L49.4919 21.3887C50.375 21.7575 51.1888 22.274 51.8984 22.9161L51.5325 24.7987C51.5088 24.9197 51.5092 25.0441 51.5336 25.1649C51.558 25.2857 51.606 25.4005 51.6748 25.5027C51.7436 25.605 51.832 25.6926 51.9347 25.7607C52.0375 25.8288 52.1526 25.8759 52.2736 25.8995C52.3946 25.923 52.519 25.9224 52.6398 25.8978C52.7606 25.8732 52.8753 25.825 52.9774 25.756C53.0795 25.6869 53.167 25.5985 53.2349 25.4956C53.3028 25.3927 53.3498 25.2775 53.3731 25.1565L53.4449 24.7865C53.8352 25.43 54.1381 26.1225 54.3456 26.8459C54.4026 27.0444 54.4491 27.2432 54.4909 27.4422L53.091 28.7477C52.9127 28.9181 52.8087 29.1519 52.8016 29.3985C52.7946 29.6451 52.8849 29.8845 53.0532 30.0648C53.2214 30.2452 53.4539 30.352 53.7004 30.3621C53.9468 30.3722 54.1873 30.2848 54.3698 30.1188L54.6426 29.8644C54.5624 30.8187 54.3204 31.7523 53.927 32.6254L52.0308 32.8583C51.784 32.8886 51.5594 33.0157 51.4063 33.2116C51.2532 33.4076 51.1842 33.6563 51.2145 33.9031C51.2448 34.1499 51.3719 34.3745 51.5679 34.5276C51.7638 34.6807 52.0125 34.7496 52.2593 34.7193L52.6252 34.6745C52.0031 35.4 51.2616 36.0141 50.4328 36.49H50.4324Z" fill="#1C1B17"/>
</svg>
