<svg width="60" height="60" viewBox="0 0 60 60" fill="none" xmlns="http://www.w3.org/2000/svg">
<g clip-path="url(#clip0_406:22)">
<path d="M32.5017 56.2226L32.5019 56.2229C43.6579 51.5407 50.9172 40.6234 50.9196 28.5242V13.9024L29.6502 2.56874L8.98774 13.893V28.8355C9.00021 40.7864 16.0812 51.5971 27.0309 56.3847L32.5017 56.2226ZM32.5017 56.2226L32.4928 56.2271L32.4891 56.2289M32.5017 56.2226L32.4891 56.2289M32.4891 56.2289L29.5662 57.4908L27.0311 56.3848L32.4891 56.2289ZM7.10357 12.0231L7.10349 12.0231C6.69583 12.2468 6.44302 12.6744 6.44302 13.1395L6.44302 28.8356L6.44302 28.8358C6.45623 41.7979 14.136 53.5246 26.0125 58.7177L26.0126 58.7178L29.0561 60.044C29.0561 60.044 29.0561 60.044 29.0561 60.0441C29.3786 60.1847 29.7458 60.1854 30.069 60.0455L33.497 58.5651C33.4972 58.565 33.4974 58.5649 33.4976 58.5648C45.5941 53.4842 53.4637 41.6443 53.465 28.5243V13.1395C53.465 12.6694 53.2059 12.2369 52.791 12.016C52.791 12.016 52.791 12.016 52.791 12.016L30.2405 -0.000122297L30.2404 -0.00016933V-0.000169166C29.8612 -0.202512 29.4066 -0.199683 29.0302 0.00693247L29.0301 0.00699021L7.10357 12.0231Z" fill="black" stroke="#1C1B17" stroke-width="0.3"/>
<path d="M21.3663 28.1079C20.9635 27.6362 20.2549 27.5804 19.7832 27.9832C19.3114 28.3854 19.2557 29.0946 19.6585 29.5657L25.5889 36.5104C25.9848 36.974 26.6784 37.0373 27.1507 36.6526L40.9624 25.4159C41.4436 25.0249 41.5162 24.3176 41.1247 23.8365C40.7337 23.356 40.0264 23.2827 39.5453 23.6742L26.5844 34.2181L21.3663 28.1079Z" fill="black"/>
</g>
<defs>
<clipPath id="clip0_406:22">
<rect width="60" height="60" fill="white"/>
</clipPath>
</defs>
</svg>
