<svg width="60" height="58" viewBox="0 0 60 58" fill="none" xmlns="http://www.w3.org/2000/svg">
<path d="M42.0396 27.7928C41.9453 27.1335 41.5271 26.5652 40.9256 26.2791C40.324 25.993 39.6194 26.0273 39.0484 26.3702L37.3066 27.415C36.7102 27.776 36.345 28.4215 36.3426 29.1186L36.3446 30.9427L33.4256 33.8624C33.053 34.2356 32.8431 34.741 32.8417 35.2683L32.8408 39.0583C32.8405 39.462 33.0836 39.8261 33.4566 39.9807C33.8295 40.1353 34.2589 40.05 34.5444 39.7643L41.8953 32.4135C42.3369 31.9705 42.5451 31.3461 42.4576 30.7268L42.0396 27.7928ZM34.8378 36.6484V35.2728L37.7569 32.3532C38.1299 31.9813 38.3389 31.4759 38.3377 30.9493L38.3348 29.1262L40.0629 28.075L40.4839 31.0024L34.8378 36.6484Z" fill="#1C1B17"/>
<path d="M58.5625 12.9562C56.7922 9.88988 53.5198 8.00169 49.9791 8.0038H49.9771C47.3481 7.99713 44.8257 9.04239 42.9722 10.9068C42.9427 10.9364 42.9178 10.9691 42.8885 10.999C42.9623 10.8962 43.0291 10.7901 43.1076 10.6895C44.7489 8.5852 45.8415 7.20274 46.3552 6.5804C46.842 5.98964 47.0135 5.20017 46.8156 4.46076C46.6177 3.72134 46.0749 3.12298 45.3581 2.85432L42.4712 1.76953C38.2986 0.20029 33.6897 0.249062 29.5511 1.90602L26.4751 3.13701C26.0573 3.30403 25.8031 3.73011 25.8543 4.17713C25.9055 4.62415 26.2496 4.98157 26.6944 5.04976L30.8815 5.69304C31.6681 5.81421 32.4421 6.0059 33.1944 6.26567C34.1608 6.60017 34.9896 7.2445 35.5521 8.09853L30.0903 10.8133C29.9666 10.8466 29.8508 10.9043 29.7494 10.9827L29.1338 11.2887C25.934 12.8737 23.1114 15.1265 20.8559 17.8949L20.4524 18.39C18.5897 20.6682 18.5581 23.9343 20.3764 26.2482L11.3521 31.3609L10.1015 30.9393C9.43008 30.7112 8.68833 30.8462 8.14049 31.2965L0.366109 37.6475C0.0851733 37.8775 -0.0488617 38.2419 0.0161675 38.5991C0.0811967 38.9563 0.334998 39.2501 0.678974 39.3664L5.18868 40.8854C5.38926 40.9523 5.60576 40.9544 5.80763 40.8913L15.2413 37.9142C15.2853 37.9004 15.3282 37.8835 15.37 37.864L21.2988 35.0448L20.6853 37.663C18.2587 37.7773 15.9646 38.802 14.2598 40.5326C11.4351 43.3537 10.589 47.5992 12.1163 51.2878C13.6435 54.9763 17.2432 57.381 21.2355 57.3796H21.2374C24.4338 57.3813 27.4328 55.8335 29.2831 53.2272C31.1333 50.6209 31.6056 47.2793 30.55 44.2623L31.986 44.5549C33.0067 44.7649 34.0646 44.4465 34.7998 43.7079L47.4567 31.0515C48.3511 30.1537 48.6125 28.8036 48.1179 27.6369C48.7292 27.753 49.3501 27.8117 49.9723 27.8122C53.513 27.8168 56.7868 25.9309 58.5591 22.8658C60.3315 19.8006 60.3327 16.0225 58.5625 12.9562ZM43.0103 5.24602L43.6191 4.3328L44.6565 4.72263C44.8027 4.77807 44.8997 4.91807 44.9001 5.07444C44.9011 5.16029 44.8713 5.24356 44.8163 5.30929C44.539 5.6452 44.0959 6.199 43.5007 6.95292L43.1408 6.59292C42.784 6.23151 42.7295 5.66929 43.0103 5.24602ZM46.5509 15.3543L45.7788 15.3551C45.9022 15.146 46.0408 14.9462 46.1936 14.7574L46.5509 15.3543ZM49.3485 17.3474C49.612 17.3499 49.8284 17.5561 49.8436 17.8191C49.8407 18.0942 49.6215 18.3181 49.3466 18.3269L44.3036 18.3372L42.085 18.3299C42.078 18.1908 42.0648 18.0529 42.0648 17.9127C42.0648 17.7253 42.0792 17.5405 42.0919 17.3554L49.3485 17.3474ZM51.3571 16.3779C51.384 16.402 51.4144 16.4199 51.4401 16.4458C51.8101 16.8151 52.0168 17.3172 52.0142 17.84C52.0164 18.363 51.8092 18.865 51.4391 19.2343C51.3961 19.2771 51.3464 19.3096 51.3005 19.3479C51.6413 18.9154 51.8308 18.3829 51.8397 17.8322C51.8385 17.3084 51.6692 16.7986 51.3571 16.3779ZM51.3059 22.5974C50.895 22.7123 50.471 22.7736 50.0444 22.7797H50.0434C49.4325 22.7776 48.8273 22.6622 48.2586 22.439L49.0375 21.6605C49.3656 21.7514 49.704 21.7998 50.0443 21.8045H50.0454C50.3214 21.8034 50.5966 21.7738 50.8666 21.7163L51.3059 22.5974ZM50.4483 13.913C49.6945 13.8357 48.9343 13.9767 48.2584 14.3191L47.7606 13.4874C48.5867 13.0541 49.519 12.8644 50.4487 12.9405L50.4483 13.913ZM47.2346 20.6402L46.5455 21.3287C46.2487 21.0299 45.9914 20.6943 45.7795 20.3302L46.9591 20.3279C47.0452 20.4334 47.1331 20.5381 47.2346 20.6402ZM36.8535 9.68075L37.3291 10.0501L33.0744 13.0804L32.0585 12.0643L36.8535 9.68075ZM21.9997 19.652L22.4032 19.1569C24.479 16.6082 27.0773 14.5346 30.0229 13.076L30.1745 13.0006L31.8581 14.6777C31.859 14.6817 31.8576 14.6858 31.8585 14.6898L27.4109 21.3591C27.0283 21.9349 26.5284 22.4236 25.944 22.7928L22.1304 25.2092C20.7286 23.64 20.6731 21.2853 21.9997 19.652ZM20.7315 28.345L20.7755 28.6871C20.8272 29.1046 20.609 29.5093 20.2316 29.6954L14.3681 32.632C14.0408 32.7913 13.6521 32.7548 13.3603 32.5372L20.7315 28.345ZM9.46458 32.8308L9.6792 32.9031L8.74915 34.2985C8.26096 35.0315 7.54189 35.5805 6.70622 35.8585L5.02833 36.4333L9.46458 32.8308ZM20.5094 47.1641L23.716 33.4804C23.8033 33.1069 23.6689 32.7166 23.3704 32.4759C23.0719 32.2352 22.6619 32.1868 22.3155 32.3513L14.5748 36.0316L5.51722 38.8899L4.76143 38.6352L7.34283 37.7509C8.5971 37.3315 9.67628 36.5067 10.4101 35.4064L11.5946 33.6288L11.8282 33.862C12.7331 34.7727 14.1221 34.9959 15.2668 34.4147L21.1206 31.4828C22.2565 30.9186 22.9123 29.6986 22.756 28.4399L22.6062 27.2707L27.0124 24.4789L27.0399 24.4593L26.6459 28.7889C26.5531 29.768 27.1951 30.666 28.1515 30.8951C27.9267 31.0207 27.7193 31.1752 27.5347 31.3548C26.3739 32.5184 26.3739 34.4021 27.5347 35.5658C27.718 35.7444 27.9239 35.8982 28.147 36.0233L28.026 36.5244C27.9607 36.76 27.9395 37.0057 27.9636 37.249L28.4726 41.8016L27.7151 41.6472C26.2384 41.3464 24.7585 42.1471 24.2024 43.5478L22.5084 47.8187C22.3205 48.2871 21.8224 48.5517 21.3291 48.4454C21.0484 48.388 20.8029 48.2194 20.6486 47.978C20.4941 47.7366 20.4439 47.4431 20.5094 47.1641ZM23.5206 49.7309C23.8932 49.4132 24.1827 49.0096 24.3642 48.5549L24.4027 48.4578L26.0696 48.4576C25.8788 49.4002 25.4153 50.2659 24.7367 50.9474L23.5206 49.7309ZM25.1943 46.4616L25.6564 45.2963C25.8414 45.6659 25.9791 46.0573 26.0659 46.4614L25.1943 46.4616ZM20.945 50.4044C21.1017 50.4328 21.2601 50.4487 21.4192 50.4522L23.0248 52.058C22.4553 52.2817 21.8493 52.3975 21.2374 52.3994H21.2364C20.5191 52.3961 19.8112 52.2356 19.1627 51.9293L20.2267 50.1542C20.4551 50.2666 20.6963 50.3507 20.945 50.4044ZM16.8266 45.2809C17.3508 44.1589 18.3001 43.292 19.4649 42.8715L18.8075 45.6766L16.8266 45.2809ZM18.78 48.6862L17.557 50.7269C16.7496 49.8307 16.302 48.6676 16.2998 47.4614C16.2998 47.378 16.3197 47.2986 16.3238 47.2159L18.5083 47.6524C18.5362 48.0104 18.6282 48.3606 18.78 48.6862ZM26.8056 53.0783C25.3314 54.5592 23.3261 55.3892 21.2365 55.3833H21.2355C17.0863 55.3911 13.6446 52.1748 13.372 48.0345C13.0993 43.8943 16.0895 40.2544 20.2038 39.7181L19.9804 40.6714C16.459 41.3169 14.0116 44.5421 14.3379 48.1074C14.6642 51.6727 17.6564 54.4 21.2365 54.3956H21.2376C23.0783 54.4011 24.8447 53.6697 26.1429 52.3649C28.4752 50.0154 28.8312 46.3486 26.9945 43.5942C27.1013 43.5812 27.2095 43.5842 27.3155 43.6033L28.1415 43.7716C29.8125 46.8261 29.2684 50.617 26.8056 53.0783ZM28.946 34.1543C28.5622 33.771 28.5618 33.1493 28.945 32.7654C29.3283 32.3817 29.9501 32.3812 30.3339 32.7644C30.7178 33.1476 30.7181 33.7694 30.335 34.1533C29.9512 34.5363 29.3302 34.5368 28.946 34.1543ZM46.0454 29.6403L33.3885 42.2966C33.1257 42.5592 32.7488 42.6728 32.3847 42.5988L30.5298 42.2207L29.9569 37.0276L30.1109 36.391C31.3205 36.2019 32.2898 35.2895 32.5519 34.0936C32.8139 32.8977 32.315 31.6636 31.2952 30.986C31.3067 30.453 31.1028 29.9378 30.7297 29.557C30.3566 29.1762 29.8457 28.9619 29.3126 28.9625L28.6343 28.9717L29.2366 22.3519C29.2349 22.3137 29.2307 22.2757 29.2242 22.2381L33.5252 15.7891C33.6815 15.5498 33.7839 15.2792 33.8252 14.9964L38.4921 11.6726C39.0222 11.2948 39.3379 10.6847 39.34 10.0336C39.3414 9.37654 39.0297 8.75818 38.5008 8.36847L37.6317 7.7383C36.8635 6.16274 35.5033 4.95514 33.8478 4.37912C32.9818 4.08017 32.0905 3.8597 31.185 3.72029L30.6178 3.63304C34.189 2.29292 38.1239 2.28614 41.6997 3.61397L41.3488 4.14041C40.5432 5.35596 40.7023 6.97011 41.7298 8.00496L42.2592 8.53432C42.0294 8.828 41.7911 9.13303 41.5349 9.46157C40.0122 11.4162 39.1749 13.8175 39.1522 16.2951C39.1505 16.3177 39.1392 16.3369 39.1392 16.3598C39.1392 16.3865 39.1523 16.4088 39.1543 16.435C39.1476 19.4192 40.3215 22.2848 42.4199 24.4066L46.0456 28.0616C46.4801 28.4978 46.4801 29.2037 46.0454 29.6403ZM55.5688 23.5033C53.6199 25.4551 50.7947 26.2503 48.1138 25.6017C45.433 24.9529 43.2839 22.9541 42.443 20.3272L43.5778 20.3309C44.5998 23.0123 47.1739 24.7819 50.0434 24.7758H50.0444C51.1154 24.7758 52.1717 24.5269 53.1299 24.0488L53.1428 24.0458L53.1527 24.0381C55.9319 22.6537 57.4527 19.5914 56.8764 16.5405C56.3 13.4896 53.7667 11.1933 50.674 10.9182C47.5814 10.6431 44.6826 12.4564 43.5768 15.3577L42.4932 15.3589C43.5825 12.1536 46.5926 9.99841 49.9779 9.99994H49.9788C53.1782 9.99994 56.0625 11.9277 57.2861 14.8838C58.5101 17.8398 57.8322 21.242 55.5688 23.5033ZM53.7606 16.4826C53.5287 15.761 53.0661 15.1354 52.4442 14.7022L52.4446 13.5453C53.5016 14.1006 54.303 15.0431 54.6814 16.1756L53.7606 16.4826ZM54.9508 18.1901C54.8772 19.3747 54.3752 20.492 53.5386 21.3337C53.3963 21.4654 53.2463 21.5887 53.0895 21.7027L52.6462 20.8137C52.7127 20.7555 52.7873 20.7092 52.8504 20.646C53.4257 20.0699 53.8077 19.3289 53.9432 18.526L54.9508 18.1901Z" fill="#1C1B17"/>
</svg>
