<svg width="58" height="60" viewBox="0 0 58 60" fill="none" xmlns="http://www.w3.org/2000/svg">
<path d="M45.394 33.7188L45.3945 33.7188L50.8121 33.601C51.0722 33.8649 51.2608 34.3056 51.3429 34.8571C51.4287 35.4341 51.3949 36.114 51.2186 36.7937L51.3559 36.8293L51.2186 36.7937C51.1185 37.1797 50.8479 38.0008 50.2378 38.7227C49.6319 39.4398 48.6888 40.0628 47.2254 40.0628C46.4953 40.0628 45.9035 40.6546 45.9035 41.3847C45.9035 42.1148 46.4953 42.7066 47.2254 42.7066C47.869 42.7066 48.4642 42.6296 49.0119 42.4888C49.3495 43.5299 49.2334 44.9266 48.6403 46.1387L48.775 46.2046L48.6403 46.1387C48.3233 46.7868 47.6928 47.7339 46.5798 48.2241C46.5444 48.2372 46.5093 48.252 46.475 48.2684C46.0494 48.44 45.5534 48.5464 44.9767 48.5464C44.2467 48.5464 43.6548 49.1383 43.6548 49.8684C43.6548 50.5985 44.2467 51.1903 44.9767 51.1903C45.4961 51.1903 45.9994 51.1348 46.4822 51.0263C46.7193 51.724 46.7188 52.8071 46.2391 53.9995C45.8143 55.0552 44.4364 57.5061 40.7712 57.5061H27.6287C25.1154 57.5061 22.5904 56.808 19.8915 56.0607C17.585 55.4221 15.1954 54.7611 12.7707 54.5733V45.4355C12.7707 44.7054 12.1788 44.1135 11.4487 44.1135C10.7186 44.1135 10.1268 44.7054 10.1268 45.4355V56.0696H3.42496V24.2549H10.1268V34.8882C10.1268 35.6183 10.7186 36.2101 11.4487 36.2101C12.1788 36.2101 12.7707 35.6183 12.7707 34.8882V25.7399C15.327 25.4767 16.7912 24.4285 17.6783 23.0207C18.5694 21.6066 18.8679 19.8428 19.1431 18.2172L19.1458 18.2014C19.426 16.5463 19.7121 14.863 20.4974 13.3582C22.4099 9.69435 22.5673 6.65662 22.6708 4.65919L22.6708 4.65812C22.7017 4.06311 22.7278 3.56797 22.792 3.25267C22.8609 2.91454 22.9699 2.74408 23.0765 2.65164C23.1832 2.55914 23.3073 2.5269 23.4505 2.50647C24.0435 2.42181 24.9498 2.69922 25.8416 3.2419C26.7277 3.78103 27.565 4.56159 28.0268 5.43796C28.7213 6.75626 29.0778 7.95638 29.1085 9.19754C29.1392 10.4397 28.844 11.7347 28.2173 13.243C27.1107 15.9064 27.4251 19.0765 28.9004 21.6679H27.7174C26.9875 21.6679 26.3955 22.2599 26.3955 22.9898C26.3955 23.7198 26.9875 24.3117 27.7174 24.3117L51.1083 24.311C52.0505 24.311 52.9223 24.6504 53.5656 25.2628L53.6572 25.1665L53.5656 25.2628C54.2151 25.881 54.5748 26.7409 54.5748 27.6882C54.5749 29.4371 53.0666 30.9076 51.1966 30.9483L45.337 31.0756C44.6072 31.0915 44.0283 31.696 44.0442 32.426C44.06 33.1564 44.6656 33.732 45.394 33.7188ZM23.0765 -0.110922L23.0977 0.0375722L23.0765 -0.11092C21.5708 0.104171 20.5229 1.14698 20.2013 2.72483C20.0972 3.23532 20.0662 3.83313 20.0312 4.50713L20.0304 4.52128C19.9325 6.41306 19.7988 8.98296 18.1536 12.1348C17.1731 14.0133 16.8349 16.0109 16.5403 17.7517L16.5388 17.7602C16.2654 19.3759 16.0519 20.6225 15.5208 21.5146C15.0207 22.3545 14.2293 22.8917 12.7704 23.0826V22.9331C12.7704 22.203 12.1786 21.6112 11.4485 21.6112H2.10304C1.37295 21.6112 0.781122 22.203 0.781122 22.9331V57.3916C0.781122 58.1217 1.37295 58.7135 2.10304 58.7135H11.4487C12.1788 58.7135 12.7707 58.1217 12.7707 57.3916V57.226C14.8531 57.4114 16.9605 57.9928 19.1859 58.6089L19.1958 58.6117C21.9162 59.3649 24.7524 60.1502 27.6287 60.1502H40.771C44.4234 60.1502 47.39 58.2216 48.6917 54.9866C49.4117 53.1969 49.4663 51.3401 48.8912 49.9193C49.7611 49.2693 50.4846 48.3853 51.015 47.3007C51.9874 45.3133 52.1056 43.0608 51.3895 41.2926C52.6448 40.2712 53.4202 38.8362 53.7777 37.4575C54.1897 35.8688 54.0952 34.3113 53.572 33.0875C55.7103 32.1651 57.2187 30.0803 57.2187 27.688C57.2187 26.0143 56.5694 24.4718 55.3886 23.3477C54.2491 22.263 52.7284 21.6671 51.1083 21.6671L32.1416 21.6677C30.2816 19.6085 29.6732 16.6293 30.6587 14.2573C31.4282 12.4054 31.7948 10.7232 31.7474 9.08534C31.7 7.44683 31.2385 5.8623 30.3658 4.20555C29.6763 2.8968 28.4669 1.73348 27.131 0.94021C25.7975 0.148301 24.3156 -0.287813 23.0765 -0.110922Z" fill="black" stroke="#1C1B17" stroke-width="0.3"/>
<path d="M11.4488 38.9897C10.8015 38.9897 10.2769 39.5147 10.2769 40.162C10.2769 40.8092 10.8015 41.3338 11.4488 41.3338C12.096 41.3338 12.6206 40.8092 12.6206 40.162V40.1612C12.6206 39.5139 12.096 38.9897 11.4488 38.9897Z" fill="black"/>
</svg>
