<svg width="31" height="30" viewBox="0 0 31 30" fill="none" xmlns="http://www.w3.org/2000/svg">
<path d="M18.3711 15C18.3711 16.5857 17.0857 17.8711 15.5 17.8711C13.9143 17.8711 12.6289 16.5857 12.6289 15C12.6289 13.4143 13.9143 12.1289 15.5 12.1289C17.0857 12.1289 18.3711 13.4143 18.3711 15Z" fill="white"/>
<path d="M22.2145 9.92039C22.0765 9.5464 21.8563 9.20789 21.5702 8.93002C21.2923 8.64392 20.954 8.42374 20.5798 8.28572C20.2763 8.16785 19.8204 8.02754 18.9806 7.98932C18.0722 7.94789 17.7998 7.93896 15.5 7.93896C13.2 7.93896 12.9276 7.94766 12.0194 7.98909C11.1796 8.02754 10.7235 8.16785 10.4202 8.28572C10.046 8.42374 9.70746 8.64392 9.42982 8.93002C9.14372 9.20789 8.92354 9.54617 8.78529 9.92039C8.66742 10.2239 8.52711 10.6801 8.48889 11.5198C8.44746 12.428 8.43854 12.7004 8.43854 15.0004C8.43854 17.3002 8.44746 17.5726 8.48889 18.481C8.52711 19.3208 8.66742 19.7767 8.78529 20.0802C8.92354 20.4545 9.14349 20.7927 9.4296 21.0706C9.70746 21.3567 10.0457 21.5769 10.42 21.7149C10.7235 21.833 11.1796 21.9733 12.0194 22.0115C12.9276 22.053 13.1997 22.0617 15.4998 22.0617C17.8 22.0617 18.0724 22.053 18.9804 22.0115C19.8201 21.9733 20.2763 21.833 20.5798 21.7149C21.331 21.4251 21.9247 20.8314 22.2145 20.0802C22.3324 19.7767 22.4727 19.3208 22.5111 18.481C22.5525 17.5726 22.5612 17.3002 22.5612 15.0004C22.5612 12.7004 22.5525 12.428 22.5111 11.5198C22.4729 10.6801 22.3326 10.2239 22.2145 9.92039ZM15.5 19.4231C13.0571 19.4231 11.0769 17.4431 11.0769 15.0002C11.0769 12.5573 13.0571 10.5773 15.5 10.5773C17.9426 10.5773 19.9229 12.5573 19.9229 15.0002C19.9229 17.4431 17.9426 19.4231 15.5 19.4231ZM20.0978 11.4361C19.5269 11.4361 19.0641 10.9733 19.0641 10.4024C19.0641 9.83159 19.5269 9.36879 20.0978 9.36879C20.6686 9.36879 21.1314 9.83159 21.1314 10.4024C21.1312 10.9733 20.6686 11.4361 20.0978 11.4361Z" fill="white"/>
<path d="M15.5 0C7.217 0 0.5 6.717 0.5 15C0.5 23.283 7.217 30 15.5 30C23.783 30 30.5 23.283 30.5 15C30.5 6.717 23.783 0 15.5 0ZM24.0613 18.5511C24.0197 19.468 23.8739 20.094 23.661 20.6419C23.2135 21.7989 22.2989 22.7135 21.1419 23.161C20.5942 23.3739 19.968 23.5194 19.0513 23.5613C18.1328 23.6032 17.8394 23.6133 15.5002 23.6133C13.1608 23.6133 12.8676 23.6032 11.9489 23.5613C11.0322 23.5194 10.406 23.3739 9.85829 23.161C9.28334 22.9447 8.76286 22.6057 8.33257 22.1674C7.89449 21.7374 7.55551 21.2167 7.33922 20.6419C7.12636 20.0942 6.98056 19.468 6.9389 18.5513C6.89656 17.6326 6.88672 17.3392 6.88672 15C6.88672 12.6608 6.89656 12.3674 6.93867 11.4489C6.98033 10.532 7.1259 9.90601 7.33876 9.35806C7.55505 8.78334 7.89426 8.26263 8.33257 7.83257C8.76263 7.39426 9.28334 7.05528 9.85806 6.83899C10.406 6.62613 11.032 6.48056 11.9489 6.43867C12.8674 6.39679 13.1608 6.38672 15.5 6.38672C17.8392 6.38672 18.1326 6.39679 19.0511 6.4389C19.968 6.48056 20.594 6.62613 21.1419 6.83876C21.7167 7.05505 22.2374 7.39426 22.6677 7.83257C23.1057 8.26286 23.4449 8.78334 23.661 9.35806C23.8741 9.90601 24.0197 10.532 24.0616 11.4489C24.1034 12.3674 24.1133 12.6608 24.1133 15C24.1133 17.3392 24.1034 17.6326 24.0613 18.5511Z" fill="white"/>
</svg>
