<svg width="20" height="16" viewBox="0 0 20 16" fill="none" xmlns="http://www.w3.org/2000/svg">
<path d="M19.9852 2.19464C19.9852 2.17179 20.001 2.14955 19.9999 2.12695L13.8966 8.00782L19.9926 13.7008C19.9962 13.6602 19.9852 13.6192 19.9852 13.5776V2.19464Z" fill="white"/>
<path d="M12.9649 8.91309L10.4734 11.3103C10.3473 11.4316 10.1845 11.4924 10.0216 11.4924C9.86202 11.4924 9.70249 11.4342 9.57727 11.3175L7.0925 9.00206L0.956688 14.9163C1.10588 14.9699 1.26602 15.0115 1.43373 15.0115H18.6095C18.8585 15.0115 19.0921 14.9357 19.2951 14.8225L12.9649 8.91309Z" fill="white"/>
<path d="M10.0144 9.94332L19.3289 0.970728C19.118 0.845342 18.8726 0.76123 18.6095 0.76123H1.43372C1.0911 0.76123 0.777161 0.894263 0.532646 1.09716L10.0144 9.94332Z" fill="white"/>
<path d="M0 2.41357V13.5778C0 13.706 0.0294565 13.8296 0.0614329 13.9477L6.12113 8.11232L0 2.41357Z" fill="white"/>
</svg>
