<svg width="16" height="12" viewBox="0 0 16 12" fill="none" xmlns="http://www.w3.org/2000/svg">
<path d="M15.9997 9.99995C15.9997 10.3507 15.901 10.6759 15.743 10.962L10.6911 5.30966L15.6882 0.937654C15.8826 1.24614 15.9997 1.60851 15.9997 2.00009V9.99995ZM7.99969 6.33595L14.953 0.251998C14.6676 0.0957934 14.3463 0 13.9997 0H1.99965C1.65262 0 1.33121 0.0957934 1.04703 0.251998L7.99969 6.33595ZM9.93821 5.96788L8.32871 7.37705C8.23457 7.45906 8.11734 7.50002 7.99969 7.50002C7.88196 7.50002 7.76474 7.45906 7.67059 7.37705L6.06073 5.96782L0.944969 11.6924C1.25161 11.8848 1.61097 12 1.99962 12H13.9997C14.3883 12 14.7478 11.8848 15.0544 11.6924L9.93821 5.96788ZM0.311216 0.937622C0.116859 1.24611 -0.000335693 1.60847 -0.000335693 2.00009V9.99998C-0.000335693 10.3507 0.097865 10.6759 0.256509 10.962L5.30778 5.3087L0.311216 0.937622Z" fill="#1C1B17"/>
</svg>
