<svg width="20" height="21" viewBox="0 0 20 21" fill="none" xmlns="http://www.w3.org/2000/svg">
<path d="M16.8204 13.398C16.0976 12.6844 15.1952 12.6844 14.477 13.398C13.9291 13.9413 13.3813 14.4845 12.8426 15.037C12.6953 15.1889 12.571 15.2212 12.3914 15.1199C12.0369 14.9265 11.6594 14.77 11.3187 14.5582C9.73034 13.5591 8.3998 12.2746 7.22119 10.829C6.63649 10.1108 6.11625 9.34194 5.75254 8.4764C5.67887 8.30145 5.69269 8.18635 5.83541 8.04363C6.38328 7.51418 6.91733 6.97091 7.45599 6.42765C8.20643 5.6726 8.20643 4.78864 7.45139 4.02899C7.02322 3.59622 6.59506 3.17266 6.16689 2.73989C5.72491 2.29791 5.28754 1.85133 4.84096 1.41396C4.11814 0.709556 3.21577 0.709556 2.49755 1.41856C1.94508 1.96183 1.41563 2.5189 0.85395 3.05296C0.333705 3.54558 0.071281 4.1487 0.0160338 4.8531C-0.071441 5.99948 0.209399 7.08141 0.605337 8.13571C1.41563 10.318 2.64948 12.2562 4.14576 14.0333C6.16689 16.4366 8.57935 18.338 11.4016 19.71C12.6723 20.3269 13.989 20.8011 15.4208 20.8794C16.406 20.9347 17.2624 20.686 17.9484 19.9172C18.418 19.3923 18.9474 18.9135 19.4446 18.4117C20.1813 17.6659 20.1859 16.7635 19.4538 16.0269C18.5791 15.1475 17.6997 14.2728 16.8204 13.398Z" fill="white"/>
</svg>
