<svg width="14" height="14" viewBox="0 0 14 14" fill="none" xmlns="http://www.w3.org/2000/svg">
<path d="M11.7744 8.758C11.2684 8.25849 10.6368 8.25849 10.134 8.758C9.75055 9.13828 9.36705 9.51855 8.99 9.90527C8.88687 10.0116 8.79986 10.0342 8.67418 9.96328C8.42603 9.82793 8.16177 9.71836 7.9233 9.57011C6.81148 8.87079 5.88012 7.97167 5.05512 6.95975C4.64584 6.45702 4.28168 5.91883 4.02709 5.31297C3.97553 5.19051 3.9852 5.10994 4.0851 5.01004C4.4686 4.63943 4.84243 4.25916 5.21948 3.87888C5.74477 3.35037 5.74477 2.73161 5.21626 2.19987C4.91655 1.89694 4.61684 1.60046 4.31713 1.29753C4.00776 0.988151 3.7016 0.675553 3.389 0.369399C2.88305 -0.123669 2.2514 -0.123669 1.74867 0.372622C1.36195 0.752897 0.991341 1.14284 0.598176 1.51667C0.234015 1.86149 0.0503226 2.28366 0.0116506 2.77673C-0.0495801 3.57918 0.147003 4.3365 0.424152 5.07449C0.991341 6.60204 1.85502 7.95878 2.90238 9.20273C4.31713 10.885 6.00581 12.2159 7.9813 13.1763C8.87076 13.6081 9.79244 13.9401 10.7947 13.9948C11.4843 14.0335 12.0838 13.8595 12.5639 13.3213C12.8926 12.9539 13.2633 12.6188 13.6113 12.2675C14.1269 11.7454 14.1301 11.1138 13.6177 10.5981C13.0054 9.98261 12.3899 9.37031 11.7744 8.758Z" fill="#1C1B17"/>
</svg>
