<svg width="31" height="30" viewBox="0 0 31 30" fill="none" xmlns="http://www.w3.org/2000/svg">
<path d="M13.6317 17.8104L18.511 15.0002L13.6317 12.1899V17.8104Z" fill="white"/>
<path d="M15.5 0C7.217 0 0.5 6.717 0.5 15C0.5 23.283 7.217 30 15.5 30C23.783 30 30.5 23.283 30.5 15C30.5 6.717 23.783 0 15.5 0ZM24.8727 15.0153C24.8727 15.0153 24.8727 18.0574 24.4868 19.5243C24.2705 20.3272 23.6374 20.9603 22.8345 21.1764C21.3676 21.5625 15.5 21.5625 15.5 21.5625C15.5 21.5625 9.64772 21.5625 8.16548 21.161C7.36256 20.945 6.72948 20.3117 6.51318 19.5087C6.12706 18.0574 6.12706 15 6.12706 15C6.12706 15 6.12706 11.9582 6.51318 10.4913C6.72925 9.68834 7.3779 9.03969 8.16548 8.82362C9.63239 8.4375 15.5 8.4375 15.5 8.4375C15.5 8.4375 21.3676 8.4375 22.8345 8.83896C23.6374 9.05502 24.2705 9.68834 24.4868 10.4913C24.8883 11.9582 24.8727 15.0153 24.8727 15.0153Z" fill="white"/>
</svg>
